<svg data-v-0dd9719b="" version="1.0" xmlns="http://www.w3.org/2000/svg" xmlns:xlink="http://www.w3.org/1999/xlink" width="100%" height="100%" viewBox="0 0 340.000000 250.000000" preserveAspectRatio="xMidYMid meet" color-interpolation-filters="sRGB" style="margin: auto;"> <rect data-v-0dd9719b="" x="0" y="0" width="100%" height="100%" fill="#fff" fill-opacity="1" class="background"></rect> <rect data-v-0dd9719b="" x="0" y="0" width="100%" height="100%" fill="url(#watermark)" fill-opacity="1" class="watermarklayer"></rect> <g data-v-0dd9719b="" fill="#333" class="icon-text-wrapper icon-svg-group iconsvg" transform="translate(48.540000915527344,95.00629806518555)"><g class="iconsvg-imagesvg" transform="translate(0,0)"><g><rect fill="#333" fill-opacity="0" stroke-width="2" x="0" y="0" width="60" height="59.987402645444455" class="image-rect"></rect> <svg x="0" y="0" width="60" height="59.987402645444455" filtersec="colorsb4642305167" class="image-svg-svg primary" style="overflow: visible;"><svg xmlns="http://www.w3.org/2000/svg" viewBox="-0.03560884669423103 -0.000012916267223772593 98.25298309326172 98.232421875"><path d="M50.32 45l.06-45h-1.26a49.12 49.12 0 0 0-32.48 86l-.13-66z" fill="#fdd300"></path><path d="M64.29 73.25l.11-70.83A48.58 48.58 0 0 0 57.88.78l-.09 58.82L24 34.57l.11 56.82a48.91 48.91 0 0 0 6.48 3.23l-.09-46.4z" fill="#f29600"></path><path d="M70.92 5.09L70.8 86.9 37 61.87l.07 34.87A49.13 49.13 0 0 0 70.92 5.09z" fill="#036eb7"></path></svg></svg> <!----></g></g> <g transform="translate(67,8.267452239990234)"><g data-gra="path-name" fill-rule="" class="tp-name iconsvg-namesvg" transform="translate(0,0)"><g transform="scale(1)"><g><path d="M12.84-8.4L25.08-8.4 25.08 2.22 12.84 2.22 12.84-8.4ZM2.85-20.64L9.66-20.64 9.66-1.74 2.85-1.74 2.85-20.64ZM13.83-7.38L13.83 1.26 24.09 1.26 24.09-7.38 13.83-7.38ZM3.84-19.62L3.84-2.82 8.67-2.82 8.67-19.62 3.84-19.62ZM10.74-12.6L10.02-13.38Q11.37-14.4 12.62-15.66 13.86-16.92 14.96-18.31 16.05-19.71 16.95-21.22 17.85-22.74 18.54-24.27L18.54-24.27 19.44-24.27Q21.03-20.73 23.2-18.12 25.38-15.51 28.38-13.35L28.38-13.35 27.72-12.54Q22.02-16.65 18.99-22.95L18.99-22.95Q17.64-20.04 15.51-17.32 13.38-14.61 10.74-12.6L10.74-12.6ZM14.01-14.13L23.91-14.13 23.91-13.17 14.01-13.17 14.01-14.13ZM32.73-12.33L31.95-13.08Q34.47-15.48 36.66-18.57L36.66-18.57Q38.82-21.57 40.02-24.42L40.02-24.42 41.04-24Q40.56-22.95 40.02-21.9 39.48-20.85 38.85-19.86L38.85-19.86 57.15-19.86 57.15-18.81Q56.22-17.16 55.19-15.58 54.15-14.01 52.95-12.51L52.95-12.51 52.08-13.14Q53.22-14.46 54.2-15.9 55.17-17.34 55.95-18.78L55.95-18.78 38.13-18.78Q36.93-17.01 35.56-15.39 34.2-13.77 32.73-12.33L32.73-12.33ZM39.63 2.82L39.45 1.5Q41.1 1.62 42.6 1.59L42.6 1.59Q43.41 1.56 43.84 1.48 44.28 1.41 44.5 1.19 44.73 0.96 44.77 0.49 44.82 0.03 44.82-0.75L44.82-0.75 44.82-16.83 45.93-16.83 45.93-0.39Q45.93 0.51 45.83 1.06 45.72 1.62 45.45 1.93 45.18 2.25 44.7 2.42 44.22 2.58 43.44 2.67L43.44 2.67Q42.78 2.73 41.74 2.77 40.71 2.82 39.63 2.82L39.63 2.82ZM32.1 0.93L31.26 0.24Q32.37-1.02 33.47-2.49 34.56-3.96 35.56-5.52 36.57-7.08 37.45-8.69 38.34-10.29 39.03-11.79L39.03-11.79 40.02-11.31Q39.3-9.78 38.36-8.12 37.41-6.45 36.38-4.83 35.34-3.21 34.24-1.72 33.15-0.24 32.1 0.93L32.1 0.93ZM49.68-10.95L50.49-11.61Q51.36-10.62 52.39-9.21 53.43-7.8 54.69-5.91L54.69-5.91Q55.95-4.05 56.88-2.55 57.81-1.05 58.41 0.12L58.41 0.12 57.51 0.69Q56.91-0.45 55.99-1.95 55.08-3.45 53.82-5.31L53.82-5.31Q52.56-7.17 51.55-8.56 50.55-9.96 49.68-10.95L49.68-10.95ZM67.29-4.71L71.88-4.71 71.88-15.54Q73.14-15.63 74.66-15.79 76.17-15.96 78-16.2L78-16.2Q81.63-16.68 84.12-17.28L84.12-17.28 84.33-16.32Q83.16-16.05 81.73-15.79 80.31-15.54 78.6-15.3L78.6-15.3Q76.89-15.06 75.47-14.89 74.04-14.73 72.87-14.61L72.87-14.61 72.87-11.19 87.42-11.19 87.42-10.17 82.14-10.17 82.14-4.71 88.68-4.71 88.68-3.69 67.29-3.69 67.29-4.71ZM72.87-10.17L72.87-4.71 81.12-4.71 81.12-10.17 72.87-10.17ZM69.42-20.61L87.21-20.61 87.21-16.32 86.19-16.32 86.19-19.65 70.47-19.65 70.47-16.29 69.42-16.29 69.42-20.61ZM63.21 3.48L62.25 3.03Q62.73 1.98 63.26 0.58 63.78-0.81 64.38-2.64L64.38-2.64Q65.58-6.33 66-8.55L66-8.55 66.99-8.28Q66.75-7.14 66.34-5.65 65.94-4.17 65.34-2.34L65.34-2.34Q64.74-0.54 64.22 0.94 63.69 2.43 63.21 3.48L63.21 3.48ZM67.56 3.63L67.05 2.67Q68.82 1.71 70.95 0.3L70.95 0.3Q72.06-0.39 72.96-1.06 73.86-1.74 74.58-2.37L74.58-2.37 75.12-1.47Q74.4-0.87 73.48-0.21 72.57 0.45 71.46 1.17L71.46 1.17Q70.35 1.92 69.39 2.52 68.43 3.12 67.56 3.63L67.56 3.63ZM79.5-1.41L79.95-2.31Q81.42-1.62 83.94-0.06L83.94-0.06Q85.2 0.66 86.14 1.32 87.09 1.98 87.78 2.58L87.78 2.58 87.27 3.48Q85.89 2.28 83.46 0.78L83.46 0.78Q82.23 0.03 81.25-0.53 80.28-1.08 79.5-1.41L79.5-1.41ZM61.32-15.78L61.92-16.62Q63.06-15.9 64.77-14.55L64.77-14.55Q66.51-13.14 67.47-12.21L67.47-12.21 66.84-11.4Q66.36-11.85 65.69-12.42 65.01-12.99 64.14-13.68L64.14-13.68Q63.27-14.37 62.56-14.91 61.86-15.45 61.32-15.78L61.32-15.78ZM62.7-22.59L63.3-23.4Q64.23-22.83 65.85-21.51L65.85-21.51Q66.63-20.88 67.28-20.32 67.92-19.77 68.34-19.35L68.34-19.35 67.65-18.57Q67.23-18.99 66.63-19.52 66.03-20.04 65.25-20.67L65.25-20.67Q63.69-21.96 62.7-22.59L62.7-22.59ZM76.41-24.39L77.34-24.87Q77.55-24.6 77.88-24.12 78.21-23.64 78.54-23.13 78.87-22.62 79.17-22.13 79.47-21.63 79.62-21.33L79.62-21.33 78.66-20.88Q78.45-21.27 78.15-21.78 77.85-22.29 77.52-22.79 77.19-23.28 76.89-23.71 76.59-24.15 76.41-24.39L76.41-24.39ZM103.35-24.39L104.31-24.72Q104.55-24.3 104.81-23.77 105.06-23.25 105.36-22.59L105.36-22.59Q105.57-22.08 105.83-21.43 106.08-20.79 106.23-20.31L106.23-20.31 118.14-20.31 118.14-19.29 105.48-19.29 105.48-13.98 115.08-13.98 115.08-3.99Q115.08-2.97 114.91-2.31 114.75-1.65 114.38-1.23 114-0.81 113.41-0.61 112.83-0.42 111.99-0.36L111.99-0.36Q111.12-0.3 110.36-0.28 109.59-0.27 108.93-0.3L108.93-0.3 108.75-1.56Q110.16-1.41 111.81-1.47L111.81-1.47Q112.44-1.5 112.86-1.6 113.28-1.71 113.55-1.99 113.82-2.28 113.92-2.8 114.03-3.33 114.03-4.2L114.03-4.2 114.03-12.96 105.48-12.96 105.48 3.57 104.43 3.57 104.43-12.96 95.88-12.96 95.88 0.12 94.83 0.12 94.83-13.98 104.43-13.98 104.43-19.29 91.74-19.29 91.74-20.31 105.06-20.31Q104.91-20.79 104.7-21.33 104.49-21.87 104.31-22.29L104.31-22.29Q104.04-22.92 103.78-23.47 103.53-24.03 103.35-24.39L103.35-24.39ZM135.93-20.94L146.49-20.94 146.49 1.14 135.93 1.14 135.93-20.94ZM136.95-19.86L136.95 0 145.47 0 145.47-19.86 136.95-19.86ZM122.4-20.04L122.1-21.09Q123.15-21.18 124.56-21.43 125.97-21.69 127.71-22.11L127.71-22.11Q129.48-22.53 130.81-22.95 132.15-23.37 133.11-23.79L133.11-23.79 133.59-22.77Q132.63-22.38 131.35-22 130.08-21.63 128.49-21.21L128.49-21.21 128.49-15.72 134.49-15.72 134.49-14.67 128.49-14.67 128.49-12.51Q129.36-11.79 130.19-11.01 131.01-10.23 131.85-9.42L131.85-9.42Q133.53-7.74 134.34-6.69L134.34-6.69 133.53-5.91Q133.14-6.42 132.56-7.09 131.97-7.77 131.19-8.58L131.19-8.58Q129.66-10.2 128.49-11.19L128.49-11.19 128.49 3.51 127.47 3.51 127.47-14.67 127.41-14.67Q126.66-11.52 125.16-8.16L125.16-8.16Q123.66-4.74 122.13-2.58L122.13-2.58 121.2-3.33Q122.88-5.55 124.47-9.03L124.47-9.03Q125.85-12.03 126.54-14.67L126.54-14.67 121.65-14.67 121.65-15.72 127.47-15.72 127.47-20.97Q125.85-20.58 124.61-20.34 123.36-20.1 122.4-20.04L122.4-20.04ZM164.16-7.71L164.16-8.76Q165.45-11.13 166.77-14.25L166.77-14.25 167.1-15.03 163.47-15.03 163.47-15.99 167.49-15.99Q167.91-17.07 168.3-18.11 168.69-19.14 169.02-20.1L169.02-20.1 169.98-19.8Q169.65-18.87 169.32-17.93 168.99-16.98 168.57-15.99L168.57-15.99 177.87-15.99 177.87-15.03 168.18-15.03 167.82-14.13Q166.59-11.19 165.3-8.79L165.3-8.79 170.67-8.79 170.67-13.59 171.66-13.59 171.66-8.79 177.66-8.79 177.66-7.71 171.66-7.71 171.66-3.09 178.77-3.09 178.77-2.07 171.66-2.07 171.66 3.48 170.67 3.48 170.67-2.07 163.38-2.07 163.38-3.09 170.67-3.09 170.67-7.71 164.16-7.71ZM151.53-12.57L156.63-12.57 156.63-24.42 157.59-24.42 157.59-12.57 162.93-12.57 162.93-11.52 159.6-11.52 159.6-0.6Q159.99-1.11 160.47-1.71L160.47-1.71Q160.86-2.22 161.35-2.96 161.85-3.69 162.36-4.56L162.36-4.56 162.99-3.66Q162.09-2.1 161.09-0.87 160.08 0.36 158.91 1.5L158.91 1.5 158.28 0.75Q158.52 0.45 158.59 0.28 158.67 0.12 158.67-0.15L158.67-0.15 158.67-11.52 155.73-11.52Q155.73-10.65 155.73-9.73 155.73-8.82 155.7-7.71L155.7-7.71Q155.64-5.7 155.43-4.16 155.22-2.61 154.77-1.33 154.32-0.06 153.65 1.09 152.97 2.25 151.98 3.51L151.98 3.51 151.17 2.91Q152.13 1.74 152.79 0.61 153.45-0.51 153.88-1.77 154.32-3.03 154.53-4.47 154.74-5.91 154.77-7.71L154.77-7.71Q154.8-8.76 154.8-9.66 154.8-10.56 154.8-11.52L154.8-11.52 151.53-11.52 151.53-12.57ZM163.83-22.17L177.72-22.17 177.72-17.79 176.73-17.79 176.73-21.21 164.82-21.21 164.82-17.79 163.83-17.79 163.83-22.17ZM159.9-14.31L159.09-14.7Q159.42-15.27 159.78-16.11 160.14-16.95 160.53-18L160.53-18Q160.92-19.08 161.21-19.95 161.49-20.82 161.64-21.51L161.64-21.51 162.54-21.24Q162.18-19.95 161.37-17.7L161.37-17.7Q160.56-15.54 159.9-14.31L159.9-14.31ZM151.89-21.06L152.73-21.42Q153.03-20.82 153.36-19.98 153.69-19.14 154.11-18.09L154.11-18.09Q154.89-16.05 155.22-14.73L155.22-14.73 154.38-14.4Q154.23-15.03 153.94-15.87 153.66-16.71 153.27-17.76L153.27-17.76Q152.88-18.81 152.55-19.63 152.22-20.46 151.89-21.06L151.89-21.06Z" transform="translate(-2.8499999046325684, 24.8700008392334)"></path></g> <!----> <!----> <!----> <!----> <!----> <!----> <!----></g></g> <g data-gra="path-slogan" fill-rule="" class="tp-slogan iconsvg-slogansvg" fill="#333" transform="translate(5,34.5)"><rect x="0" height="1" y="3.9750003814697266" width="16.889999389648438"></rect> <rect height="1" y="3.9750003814697266" width="16.889999389648438" x="149.02999877929688"></rect> <g transform="translate(19.889999389648438,0)"><g transform="scale(1)"><path d="M2.06-5.06L6.56-5.06L6.56-8.58L7.73-8.58L7.73 0L6.56 0L6.56-3.98L2.06-3.98L2.06 0L0.89 0L0.89-8.58L2.06-8.58L2.06-5.06ZM15.19 0L14.34-2.48L10.88-2.48L9.98 0L8.81 0L12.05-8.58L13.36-8.58L16.45 0L15.19 0ZM12.61-7.31L11.25-3.52L13.92-3.52L12.66-7.31L12.61-7.31ZM21.61-3.70L18.80-3.70L18.80 0L17.63 0L17.63-8.58L21.61-8.58Q24.47-8.58 24.47-6.28L24.47-6.28Q24.47-4.88 23.25-4.22L23.25-4.22Q24.28-3.94 24.28-2.58L24.28-2.58L24.38-1.03Q24.33-0.38 24.80-0.19L24.80-0.19L24.80 0L23.34 0Q23.20-0.61 23.16-2.16L23.16-2.16Q23.20-3.70 21.61-3.70L21.61-3.70ZM21.70-7.64L18.80-7.64L18.80-4.69L21.52-4.69Q23.25-4.69 23.25-6.19L23.25-6.19Q23.25-7.64 21.70-7.64L21.70-7.64ZM29.34-7.64L27.28-7.64L27.28-4.97L29.34-4.97Q31.17-4.92 31.13-6.38L31.13-6.38Q31.13-7.64 29.34-7.64L29.34-7.64ZM29.81 0L26.11 0L26.11-8.58L29.91-8.58Q32.20-8.48 32.30-6.42L32.30-6.42Q32.30-5.16 31.17-4.64L31.17-4.64Q32.77-4.08 32.77-2.53L32.77-2.53Q32.63-0.09 29.81 0L29.81 0ZM29.53-3.98L27.28-3.98L27.28-0.98L29.77-0.98Q31.55-1.03 31.59-2.53L31.59-2.53Q31.59-3.98 29.53-3.98L29.53-3.98ZM34.27-8.58L35.44-8.58L35.44 0L34.27 0L34.27-8.58ZM38.81-8.58L43.13-1.64L43.13-8.58L44.25-8.58L44.25 0L42.94 0L38.58-6.94L38.53-6.94L38.53 0L37.41 0L37.41-8.58L38.81-8.58ZM56.53-6.05L56.53-6.05L55.41-6.05Q54.98-7.78 53.02-7.83L53.02-7.83Q50.30-7.69 50.20-4.36L50.20-4.36Q50.20-0.80 53.06-0.80L53.06-0.80Q55.03-0.84 55.50-3.19L55.50-3.19L56.63-3.19Q56.11 0.05 52.83 0.14L52.83 0.14Q49.08 0 48.98-4.31L48.98-4.31Q49.17-8.63 53.02-8.81L53.02-8.81Q56.06-8.72 56.53-6.05ZM58.17-8.58L59.34-8.58L59.34 0L58.17 0L58.17-8.58ZM63.52-7.59L60.61-7.59L60.61-8.58L67.55-8.58L67.55-7.59L64.64-7.59L64.64 0L63.52 0L63.52-7.59ZM75.52-8.58L72.28-3.47L72.28 0L71.11 0L71.11-3.47L67.88-8.58L69.23-8.58L71.67-4.45L74.16-8.58L75.52-8.58ZM85.55 0L84.70-2.48L81.23-2.48L80.34 0L79.17 0L82.41-8.58L83.72-8.58L86.81 0L85.55 0ZM82.97-7.31L81.61-3.52L84.28-3.52L83.02-7.31L82.97-7.31ZM89.25-8.58L93.56-1.64L93.56-8.58L94.69-8.58L94.69 0L93.38 0L89.02-6.94L88.97-6.94L88.97 0L87.84 0L87.84-8.58L89.25-8.58ZM99.98 0L96.52 0L96.52-8.58L100.03-8.58Q103.50-8.39 103.64-4.41L103.64-4.41Q103.45-0.09 99.98 0L99.98 0ZM99.84-7.64L97.69-7.64L97.69-0.98L99.94-0.98Q102.38-1.13 102.47-4.31L102.47-4.31Q102.42-7.55 99.84-7.64L99.84-7.64ZM109.59-5.06L114.09-5.06L114.09-8.58L115.27-8.58L115.27 0L114.09 0L114.09-3.98L109.59-3.98L109.59 0L108.42 0L108.42-8.58L109.59-8.58L109.59-5.06ZM122.72-3.19L122.72-8.58L123.89-8.58L123.89-3.05Q123.75 0.05 120.38 0.14L120.38 0.14Q117.23 0.05 117.09-2.86L117.09-2.86L117.09-8.58L118.27-8.58L118.27-3.19Q118.31-0.84 120.42-0.80L120.42-0.80Q122.72-0.84 122.72-3.19L122.72-3.19ZM125.86-8.58L127.03-8.58L127.03 0L125.86 0L125.86-8.58Z" transform="translate(-0.890625, 8.8125)"></path></g></g></g></g></g><defs v-gra="od"></defs></svg>